<svg width="1440" height="900" viewBox="0 0 1440 900" fill="none" xmlns="http://www.w3.org/2000/svg">
  <!-- Основной фоновый градиент -->
  <defs>
    <linearGradient id="bgGradient" x1="0%" y1="0%" x2="100%" y2="100%">
      <stop offset="0%" stop-color="#fafefe" stop-opacity="1" />
      <stop offset="100%" stop-color="#f8fcfd" stop-opacity="1" />
    </linearGradient>
    
    <!-- Градиенты для кубов -->
    <linearGradient id="blueGradient" x1="0%" y1="0%" x2="100%" y2="100%">
      <stop offset="0%" stop-color="#241e46" stop-opacity="0.08" />
      <stop offset="100%" stop-color="#241e46" stop-opacity="0.03" />
    </linearGradient>
    
    <linearGradient id="tealGradient" x1="100%" y1="0%" x2="0%" y2="100%">
      <stop offset="0%" stop-color="#00837f" stop-opacity="0.08" />
      <stop offset="100%" stop-color="#00837f" stop-opacity="0.03" />
    </linearGradient>
    
    <!-- Радиальные градиенты для бликов -->
    <radialGradient id="highlightBlue" cx="50%" cy="50%" r="50%" fx="50%" fy="50%">
      <stop offset="0%" stop-color="#241e46" stop-opacity="0.15" />
      <stop offset="100%" stop-color="#241e46" stop-opacity="0" />
    </radialGradient>
    
    <radialGradient id="highlightTeal" cx="50%" cy="50%" r="50%" fx="50%" fy="50%">
      <stop offset="0%" stop-color="#00837f" stop-opacity="0.15" />
      <stop offset="100%" stop-color="#00837f" stop-opacity="0" />
    </radialGradient>
    
    <!-- Фильтры -->
    <filter id="softGlow" x="-50%" y="-50%" width="200%" height="200%">
      <feGaussianBlur in="SourceGraphic" stdDeviation="5" />
    </filter>
    
    <filter id="lightShadow" x="-50%" y="-50%" width="200%" height="200%">
      <feGaussianBlur in="SourceGraphic" stdDeviation="2" />
    </filter>
  </defs>
  
  <!-- Основной фон -->
  <rect width="1440" height="900" fill="url(#bgGradient)" />
  
  <!-- Сетка тонких линий -->
  <g opacity="0.07">
    <!-- Горизонтальные линии -->
    <line x1="0" y1="150" x2="1440" y2="150" stroke="#241e46" stroke-width="0.8" />
    <line x1="0" y1="300" x2="1440" y2="300" stroke="#00837f" stroke-width="0.8" />
    <line x1="0" y1="450" x2="1440" y2="450" stroke="#241e46" stroke-width="0.8" />
    <line x1="0" y1="600" x2="1440" y2="600" stroke="#00837f" stroke-width="0.8" />
    <line x1="0" y1="750" x2="1440" y2="750" stroke="#241e46" stroke-width="0.8" />
    
    <!-- Вертикальные линии - только по краям -->
    <line x1="200" y1="0" x2="200" y2="900" stroke="#241e46" stroke-width="0.8" />
    <line x1="1240" y1="0" x2="1240" y2="900" stroke="#241e46" stroke-width="0.8" />
  </g>
  
  <!-- Группа 3D элементов слева - более насыщенные -->
  <g opacity="0.25">
    <!-- Куб 1 -->
    <path d="M100,200 L200,150 L300,200 L200,250 Z" fill="url(#tealGradient)" />
    <path d="M100,200 L100,300 L200,350 L200,250 Z" fill="url(#blueGradient)" />
    <path d="M200,250 L200,350 L300,300 L300,200 Z" fill="url(#tealGradient)" opacity="0.7" />
    
    <!-- Куб 2 -->
    <path d="M80,600 L180,550 L280,600 L180,650 Z" fill="url(#blueGradient)" />
    <path d="M80,600 L80,700 L180,750 L180,650 Z" fill="url(#tealGradient)" />
    <path d="M180,650 L180,750 L280,700 L280,600 Z" fill="url(#blueGradient)" opacity="0.7" />
    
    <!-- Дополнительные элементы -->
    <rect x="50" y="400" width="100" height="100" fill="url(#tealGradient)" opacity="0.8" />
    <circle cx="180" cy="450" r="60" fill="url(#highlightBlue)" opacity="0.8" />
  </g>
  
  <!-- Группа 3D элементов справа - более насыщенные -->
  <g opacity="0.25">
    <!-- Куб 1 -->
    <path d="M1140,200 L1240,150 L1340,200 L1240,250 Z" fill="url(#blueGradient)" />
    <path d="M1140,200 L1140,300 L1240,350 L1240,250 Z" fill="url(#tealGradient)" />
    <path d="M1240,250 L1240,350 L1340,300 L1340,200 Z" fill="url(#blueGradient)" opacity="0.7" />
    
    <!-- Куб 2 -->
    <path d="M1160,600 L1260,550 L1360,600 L1260,650 Z" fill="url(#tealGradient)" />
    <path d="M1160,600 L1160,700 L1260,750 L1260,650 Z" fill="url(#blueGradient)" />
    <path d="M1260,650 L1260,750 L1360,700 L1360,600 Z" fill="url(#tealGradient)" opacity="0.7" />
    
    <!-- Дополнительные элементы -->
    <rect x="1290" y="400" width="100" height="100" fill="url(#blueGradient)" opacity="0.8" />
    <circle cx="1260" cy="450" r="60" fill="url(#highlightTeal)" opacity="0.8" />
  </g>
  
  <!-- Центральная область - минимум элементов -->
  <g opacity="0.1">
    <!-- Очень тонкие линии-направляющие -->
    <line x1="720" y1="100" x2="720" y2="800" stroke="#241e46" stroke-width="0.5" />
    <line x1="420" y1="450" x2="1020" y2="450" stroke="#00837f" stroke-width="0.5" />
    
    <!-- Легкие геометрические элементы -->
    <rect x="670" y="400" width="100" height="100" stroke="#241e46" stroke-width="0.6" fill="none" />
    <circle cx="720" cy="450" r="70" stroke="#00837f" stroke-width="0.6" fill="none" />
    
    <!-- Точки пересечений -->
    <circle cx="520" cy="350" r="1.5" fill="#241e46" opacity="0.4" />
    <circle cx="920" cy="350" r="1.5" fill="#00837f" opacity="0.4" />
    <circle cx="520" cy="550" r="1.5" fill="#00837f" opacity="0.4" />
    <circle cx="920" cy="550" r="1.5" fill="#241e46" opacity="0.4" />
  </g>
  
  <!-- Прозрачные кубы на среднем расстоянии от центра -->
  <g opacity="0.15">
    <!-- Левая сторона -->
    <path d="M400,300 L450,275 L500,300 L450,325 Z" fill="url(#tealGradient)" />
    <path d="M400,300 L400,350 L450,375 L450,325 Z" fill="url(#blueGradient)" />
    <path d="M450,325 L450,375 L500,350 L500,300 Z" fill="url(#tealGradient)" opacity="0.7" />
    
    <!-- Правая сторона -->
    <path d="M940,300 L990,275 L1040,300 L990,325 Z" fill="url(#blueGradient)" />
    <path d="M940,300 L940,350 L990,375 L990,325 Z" fill="url(#tealGradient)" />
    <path d="M990,325 L990,375 L1040,350 L1040,300 Z" fill="url(#blueGradient)" opacity="0.7" />
    
    <!-- Нижняя часть -->
    <path d="M400,600 L450,575 L500,600 L450,625 Z" fill="url(#blueGradient)" />
    <path d="M400,600 L400,650 L450,675 L450,625 Z" fill="url(#tealGradient)" />
    <path d="M450,625 L450,675 L500,650 L500,600 Z" fill="url(#blueGradient)" opacity="0.7" />
    
    <!-- Правая нижняя часть -->
    <path d="M940,600 L990,575 L1040,600 L990,625 Z" fill="url(#tealGradient)" />
    <path d="M940,600 L940,650 L990,675 L990,625 Z" fill="url(#blueGradient)" />
    <path d="M990,625 L990,675 L1040,650 L1040,600 Z" fill="url(#tealGradient)" opacity="0.7" />
  </g>
  
  <!-- Тонкие линии, соединяющие элементы -->
  <g opacity="0.1">
    <path d="M300,300 C 400,250 500,300 600,250 C 700,200 800,250 900,200 C 1000,150 1100,200 1200,300" stroke="#00837f" stroke-width="0.8" fill="none" />
    <path d="M300,600 C 400,650 500,600 600,650 C 700,700 800,650 900,700 C 1000,750 1100,700 1200,600" stroke="#241e46" stroke-width="0.8" fill="none" />
  </g>
  
  <!-- Акцентные светящиеся точки на пересечениях линий -->
  <g filter="url(#softGlow)">
    <circle cx="300" cy="300" r="3" fill="#00837f" opacity="0.25" />
    <circle cx="600" cy="250" r="3" fill="#241e46" opacity="0.25" />
    <circle cx="900" cy="200" r="3" fill="#00837f" opacity="0.25" />
    <circle cx="1200" cy="300" r="3" fill="#241e46" opacity="0.25" />
    
    <circle cx="300" cy="600" r="3" fill="#00837f" opacity="0.25" />
    <circle cx="600" cy="650" r="3" fill="#241e46" opacity="0.25" />
    <circle cx="900" cy="700" r="3" fill="#00837f" opacity="0.25" />
    <circle cx="1200" cy="600" r="3" fill="#241e46" opacity="0.25" />
  </g>
  
  <!-- Легкие блики для объемности -->
  <g filter="url(#lightShadow)" opacity="0.15">
    <circle cx="150" cy="250" r="20" fill="url(#highlightTeal)" />
    <circle cx="1290" cy="650" r="20" fill="url(#highlightBlue)" />
    <circle cx="450" cy="400" r="15" fill="url(#highlightTeal)" />
    <circle cx="990" cy="500" r="15" fill="url(#highlightBlue)" />
    <circle cx="720" cy="450" r="30" fill="url(#highlightTeal)" />
  </g>
</svg> 