<svg width="1440" height="900" viewBox="0 0 1440 900" fill="none" xmlns="http://www.w3.org/2000/svg">
  <!-- Основной фоновый градиент -->
  <defs>
    <linearGradient id="bgGradient" x1="0%" y1="0%" x2="100%" y2="100%">
      <stop offset="0%" stop-color="#f9fcfc" stop-opacity="1" />
      <stop offset="100%" stop-color="#f5fafc" stop-opacity="1" />
    </linearGradient>
    
    <!-- Градиенты для форм -->
    <linearGradient id="hexGradient1" x1="0%" y1="0%" x2="100%" y2="100%">
      <stop offset="0%" stop-color="#00837f" stop-opacity="0.15" />
      <stop offset="100%" stop-color="#00837f" stop-opacity="0.05" />
    </linearGradient>
    
    <linearGradient id="hexGradient2" x1="0%" y1="0%" x2="100%" y2="100%">
      <stop offset="0%" stop-color="#241e46" stop-opacity="0.15" />
      <stop offset="100%" stop-color="#241e46" stop-opacity="0.05" />
    </linearGradient>
    
    <!-- Сетка для фона -->
    <pattern id="grid" width="40" height="40" patternUnits="userSpaceOnUse">
      <path d="M 40 0 L 0 0 0 40" fill="none" stroke="#00837f" stroke-width="0.2" stroke-opacity="0.1"/>
    </pattern>
    
    <!-- Фильтр для тени -->
    <filter id="shadow" x="-20%" y="-20%" width="140%" height="140%">
      <feGaussianBlur in="SourceAlpha" stdDeviation="1.5" />
      <feOffset dx="1" dy="1" result="offsetblur" />
      <feComponentTransfer>
        <feFuncA type="linear" slope="0.08" />
      </feComponentTransfer>
      <feMerge>
        <feMergeNode />
        <feMergeNode in="SourceGraphic" />
      </feMerge>
    </filter>
  </defs>
  
  <!-- Фоновый прямоугольник с градиентом -->
  <rect width="1440" height="900" fill="url(#bgGradient)" />
  
  <!-- Сетка на весь фон -->
  <rect width="1440" height="900" fill="url(#grid)" opacity="0.3" />
  
  <!-- Гексагоны (как символ кристаллической структуры алмаза) по краям -->
  <g opacity="0.7">
    <!-- Левая часть -->
    <path d="M50,150 L90,130 L130,150 L130,190 L90,210 L50,190 Z" fill="url(#hexGradient1)" filter="url(#shadow)" />
    <path d="M150,250 L190,230 L230,250 L230,290 L190,310 L150,290 Z" fill="url(#hexGradient2)" filter="url(#shadow)" />
    <path d="M80,350 L120,330 L160,350 L160,390 L120,410 L80,390 Z" fill="url(#hexGradient1)" filter="url(#shadow)" />
    <path d="M180,450 L220,430 L260,450 L260,490 L220,510 L180,490 Z" fill="url(#hexGradient2)" filter="url(#shadow)" />
    <path d="M110,550 L150,530 L190,550 L190,590 L150,610 L110,590 Z" fill="url(#hexGradient1)" filter="url(#shadow)" />
    <path d="M200,650 L240,630 L280,650 L280,690 L240,710 L200,690 Z" fill="url(#hexGradient2)" filter="url(#shadow)" />
    
    <!-- Правая часть -->
    <path d="M1390,150 L1350,130 L1310,150 L1310,190 L1350,210 L1390,190 Z" fill="url(#hexGradient2)" filter="url(#shadow)" />
    <path d="M1290,250 L1250,230 L1210,250 L1210,290 L1250,310 L1290,290 Z" fill="url(#hexGradient1)" filter="url(#shadow)" />
    <path d="M1360,350 L1320,330 L1280,350 L1280,390 L1320,410 L1360,390 Z" fill="url(#hexGradient2)" filter="url(#shadow)" />
    <path d="M1260,450 L1220,430 L1180,450 L1180,490 L1220,510 L1260,490 Z" fill="url(#hexGradient1)" filter="url(#shadow)" />
    <path d="M1330,550 L1290,530 L1250,550 L1250,590 L1290,610 L1330,590 Z" fill="url(#hexGradient2)" filter="url(#shadow)" />
    <path d="M1240,650 L1200,630 L1160,650 L1160,690 L1200,710 L1240,690 Z" fill="url(#hexGradient1)" filter="url(#shadow)" />
  </g>
  
  <!-- Линии соединений между формами -->
  <g opacity="0.2">
    <!-- Левая часть -->
    <path d="M90,210 L120,330" stroke="#00837f" stroke-width="0.5" />
    <path d="M190,310 L160,350" stroke="#241e46" stroke-width="0.5" />
    <path d="M120,410 L220,430" stroke="#00837f" stroke-width="0.5" />
    <path d="M220,510 L150,530" stroke="#241e46" stroke-width="0.5" />
    <path d="M150,610 L240,630" stroke="#00837f" stroke-width="0.5" />
    
    <!-- Правая часть -->
    <path d="M1350,210 L1320,330" stroke="#241e46" stroke-width="0.5" />
    <path d="M1250,310 L1280,350" stroke="#00837f" stroke-width="0.5" />
    <path d="M1320,410 L1220,430" stroke="#241e46" stroke-width="0.5" />
    <path d="M1220,510 L1290,530" stroke="#00837f" stroke-width="0.5" />
    <path d="M1290,610 L1200,630" stroke="#241e46" stroke-width="0.5" />
  </g>
  
  <!-- Маленькие точки - молекулярная структура -->
  <g opacity="0.4">
    <!-- По краям -->
    <circle cx="90" cy="130" r="3" fill="#00837f" />
    <circle cx="130" cy="190" r="2" fill="#00837f" />
    <circle cx="190" cy="230" r="3" fill="#241e46" />
    <circle cx="230" cy="290" r="2" fill="#241e46" />
    <circle cx="120" cy="330" r="3" fill="#00837f" />
    <circle cx="160" cy="390" r="2" fill="#00837f" />
    <circle cx="220" cy="430" r="3" fill="#241e46" />
    <circle cx="260" cy="490" r="2" fill="#241e46" />
    <circle cx="150" cy="530" r="3" fill="#00837f" />
    <circle cx="190" cy="590" r="2" fill="#00837f" />
    <circle cx="240" cy="630" r="3" fill="#241e46" />
    <circle cx="280" cy="690" r="2" fill="#241e46" />
    
    <circle cx="1350" cy="130" r="3" fill="#241e46" />
    <circle cx="1310" cy="190" r="2" fill="#241e46" />
    <circle cx="1250" cy="230" r="3" fill="#00837f" />
    <circle cx="1210" cy="290" r="2" fill="#00837f" />
    <circle cx="1320" cy="330" r="3" fill="#241e46" />
    <circle cx="1280" cy="390" r="2" fill="#241e46" />
    <circle cx="1220" cy="430" r="3" fill="#00837f" />
    <circle cx="1180" cy="490" r="2" fill="#00837f" />
    <circle cx="1290" cy="530" r="3" fill="#241e46" />
    <circle cx="1250" cy="590" r="2" fill="#241e46" />
    <circle cx="1200" cy="630" r="3" fill="#00837f" />
    <circle cx="1160" cy="690" r="2" fill="#00837f" />
  </g>
  
  <!-- Легкие акценты в центральной части -->
  <g opacity="0.06">
    <circle cx="720" cy="150" r="3" fill="#00837f" />
    <circle cx="650" cy="250" r="2" fill="#241e46" />
    <circle cx="790" cy="350" r="3" fill="#00837f" />
    <circle cx="670" cy="450" r="2" fill="#241e46" />
    <circle cx="750" cy="550" r="3" fill="#00837f" />
    <circle cx="680" cy="650" r="2" fill="#241e46" />
    <circle cx="720" cy="750" r="3" fill="#00837f" />
  </g>
</svg> 