<svg width="1440" height="900" viewBox="0 0 1440 900" fill="none" xmlns="http://www.w3.org/2000/svg">
  <rect width="1440" height="900" fill="#f8f9fa"/>
  
  <!-- Geometric Pattern -->
  <g opacity="0.04">
    <!-- Diamond grid pattern -->
    <path d="M0 0L60 60L0 120Z" fill="#00837f"/>
    <path d="M60 60L120 0L180 60L120 120L60 60Z" fill="#241e46"/>
    <path d="M180 60L240 0L300 60L240 120L180 60Z" fill="#00837f"/>
    <path d="M300 60L360 0L420 60L360 120L300 60Z" fill="#241e46"/>
    <path d="M420 60L480 0L540 60L480 120L420 60Z" fill="#00837f"/>
    <path d="M540 60L600 0L660 60L600 120L540 60Z" fill="#241e46"/>
    <path d="M660 60L720 0L780 60L720 120L660 60Z" fill="#00837f"/>
    <path d="M780 60L840 0L900 60L840 120L780 60Z" fill="#241e46"/>
    <path d="M900 60L960 0L1020 60L960 120L900 60Z" fill="#00837f"/>
    <path d="M1020 60L1080 0L1140 60L1080 120L1020 60Z" fill="#241e46"/>
    <path d="M1140 60L1200 0L1260 60L1200 120L1140 60Z" fill="#00837f"/>
    <path d="M1260 60L1320 0L1380 60L1320 120L1260 60Z" fill="#241e46"/>
    <path d="M1380 60L1440 0L1500 60L1440 120L1380 60Z" fill="#00837f"/>
    
    <!-- Repeat pattern vertically -->
    <g transform="translate(0, 120)">
      <path d="M0 0L60 60L0 120Z" fill="#241e46"/>
      <path d="M60 60L120 0L180 60L120 120L60 60Z" fill="#00837f"/>
      <path d="M180 60L240 0L300 60L240 120L180 60Z" fill="#241e46"/>
      <path d="M300 60L360 0L420 60L360 120L300 60Z" fill="#00837f"/>
      <path d="M420 60L480 0L540 60L480 120L420 60Z" fill="#241e46"/>
      <path d="M540 60L600 0L660 60L600 120L540 60Z" fill="#00837f"/>
      <path d="M660 60L720 0L780 60L720 120L660 60Z" fill="#241e46"/>
      <path d="M780 60L840 0L900 60L840 120L780 60Z" fill="#00837f"/>
      <path d="M900 60L960 0L1020 60L960 120L900 60Z" fill="#241e46"/>
      <path d="M1020 60L1080 0L1140 60L1080 120L1020 60Z" fill="#00837f"/>
      <path d="M1140 60L1200 0L1260 60L1200 120L1140 60Z" fill="#241e46"/>
      <path d="M1260 60L1320 0L1380 60L1320 120L1260 60Z" fill="#00837f"/>
      <path d="M1380 60L1440 0L1500 60L1440 120L1380 60Z" fill="#241e46"/>
    </g>
    
    <!-- Continue repeating the pattern for 7 more rows -->
    <use href="#row1" transform="translate(0, 240)"/>
    <use href="#row2" transform="translate(0, 360)"/>
    <use href="#row1" transform="translate(0, 480)"/>
    <use href="#row2" transform="translate(0, 600)"/>
    <use href="#row1" transform="translate(0, 720)"/>
    <use href="#row2" transform="translate(0, 840)"/>
  </g>
  
  <!-- Subtle diagonal lines in the corner -->
  <g opacity="0.05">
    <line x1="0" y1="900" x2="300" y2="600" stroke="#00837f" stroke-width="1"/>
    <line x1="40" y1="900" x2="340" y2="600" stroke="#00837f" stroke-width="1"/>
    <line x1="80" y1="900" x2="380" y2="600" stroke="#00837f" stroke-width="1"/>
    <line x1="120" y1="900" x2="420" y2="600" stroke="#00837f" stroke-width="1"/>
    <line x1="160" y1="900" x2="460" y2="600" stroke="#00837f" stroke-width="1"/>
    <line x1="200" y1="900" x2="500" y2="600" stroke="#00837f" stroke-width="1"/>
  </g>
  
  <!-- Define the row patterns for reuse -->
  <defs>
    <g id="row1">
      <path d="M0 0L60 60L0 120Z" fill="#00837f"/>
      <path d="M60 60L120 0L180 60L120 120L60 60Z" fill="#241e46"/>
      <path d="M180 60L240 0L300 60L240 120L180 60Z" fill="#00837f"/>
      <path d="M300 60L360 0L420 60L360 120L300 60Z" fill="#241e46"/>
      <path d="M420 60L480 0L540 60L480 120L420 60Z" fill="#00837f"/>
      <path d="M540 60L600 0L660 60L600 120L540 60Z" fill="#241e46"/>
      <path d="M660 60L720 0L780 60L720 120L660 60Z" fill="#00837f"/>
      <path d="M780 60L840 0L900 60L840 120L780 60Z" fill="#241e46"/>
      <path d="M900 60L960 0L1020 60L960 120L900 60Z" fill="#00837f"/>
      <path d="M1020 60L1080 0L1140 60L1080 120L1020 60Z" fill="#241e46"/>
      <path d="M1140 60L1200 0L1260 60L1200 120L1140 60Z" fill="#00837f"/>
      <path d="M1260 60L1320 0L1380 60L1320 120L1260 60Z" fill="#241e46"/>
      <path d="M1380 60L1440 0L1500 60L1440 120L1380 60Z" fill="#00837f"/>
    </g>
    <g id="row2">
      <path d="M0 0L60 60L0 120Z" fill="#241e46"/>
      <path d="M60 60L120 0L180 60L120 120L60 60Z" fill="#00837f"/>
      <path d="M180 60L240 0L300 60L240 120L180 60Z" fill="#241e46"/>
      <path d="M300 60L360 0L420 60L360 120L300 60Z" fill="#00837f"/>
      <path d="M420 60L480 0L540 60L480 120L420 60Z" fill="#241e46"/>
      <path d="M540 60L600 0L660 60L600 120L540 60Z" fill="#00837f"/>
      <path d="M660 60L720 0L780 60L720 120L660 60Z" fill="#241e46"/>
      <path d="M780 60L840 0L900 60L840 120L780 60Z" fill="#00837f"/>
      <path d="M900 60L960 0L1020 60L960 120L900 60Z" fill="#241e46"/>
      <path d="M1020 60L1080 0L1140 60L1080 120L1020 60Z" fill="#00837f"/>
      <path d="M1140 60L1200 0L1260 60L1200 120L1140 60Z" fill="#241e46"/>
      <path d="M1260 60L1320 0L1380 60L1320 120L1260 60Z" fill="#00837f"/>
      <path d="M1380 60L1440 0L1500 60L1440 120L1380 60Z" fill="#241e46"/>
    </g>
  </defs>
</svg> 