<svg width="1440" height="900" viewBox="0 0 1440 900" fill="none" xmlns="http://www.w3.org/2000/svg">
  <rect width="1440" height="900" fill="#ffffff"/>
  
  <!-- Regular dot pattern -->
  <g opacity="0.04">
    <!-- Generate 20x15 grid of dots -->
    <g id="dot-row">
      <circle cx="36" cy="30" r="2" fill="#241e46"/>
      <circle cx="108" cy="30" r="2" fill="#241e46"/>
      <circle cx="180" cy="30" r="2" fill="#241e46"/>
      <circle cx="252" cy="30" r="2" fill="#241e46"/>
      <circle cx="324" cy="30" r="2" fill="#241e46"/>
      <circle cx="396" cy="30" r="2" fill="#241e46"/>
      <circle cx="468" cy="30" r="2" fill="#241e46"/>
      <circle cx="540" cy="30" r="2" fill="#241e46"/>
      <circle cx="612" cy="30" r="2" fill="#241e46"/>
      <circle cx="684" cy="30" r="2" fill="#241e46"/>
      <circle cx="756" cy="30" r="2" fill="#241e46"/>
      <circle cx="828" cy="30" r="2" fill="#241e46"/>
      <circle cx="900" cy="30" r="2" fill="#241e46"/>
      <circle cx="972" cy="30" r="2" fill="#241e46"/>
      <circle cx="1044" cy="30" r="2" fill="#241e46"/>
      <circle cx="1116" cy="30" r="2" fill="#241e46"/>
      <circle cx="1188" cy="30" r="2" fill="#241e46"/>
      <circle cx="1260" cy="30" r="2" fill="#241e46"/>
      <circle cx="1332" cy="30" r="2" fill="#241e46"/>
      <circle cx="1404" cy="30" r="2" fill="#241e46"/>
    </g>
    
    <!-- Repeat the dot pattern vertically -->
    <use href="#dot-row" y="60"/>
    <use href="#dot-row" y="120"/>
    <use href="#dot-row" y="180"/>
    <use href="#dot-row" y="240"/>
    <use href="#dot-row" y="300"/>
    <use href="#dot-row" y="360"/>
    <use href="#dot-row" y="420"/>
    <use href="#dot-row" y="480"/>
    <use href="#dot-row" y="540"/>
    <use href="#dot-row" y="600"/>
    <use href="#dot-row" y="660"/>
    <use href="#dot-row" y="720"/>
    <use href="#dot-row" y="780"/>
    <use href="#dot-row" y="840"/>
  </g>
  
  <!-- Accent dots -->
  <g opacity="0.07">
    <circle cx="72" cy="90" r="4" fill="#00837f"/>
    <circle cx="216" cy="150" r="4" fill="#00837f"/>
    <circle cx="360" cy="270" r="4" fill="#00837f"/>
    <circle cx="504" cy="330" r="4" fill="#00837f"/>
    <circle cx="648" cy="450" r="4" fill="#00837f"/>
    <circle cx="792" cy="510" r="4" fill="#00837f"/>
    <circle cx="936" cy="630" r="4" fill="#00837f"/>
    <circle cx="1080" cy="690" r="4" fill="#00837f"/>
    <circle cx="1224" cy="810" r="4" fill="#00837f"/>
    <circle cx="1368" cy="870" r="4" fill="#00837f"/>
  </g>
  
  <!-- Gradient overlay in corner -->
  <path d="M0 0H480V340C480 419.411 415.411 484 336 484H0V0Z" fill="url(#paint0_radial)"/>
  
  <defs>
    <radialGradient id="paint0_radial" cx="0" cy="0" r="1" gradientUnits="userSpaceOnUse" gradientTransform="translate(240 242) rotate(90) scale(242 240)">
      <stop stop-color="#00837f" stop-opacity="0.02"/>
      <stop offset="1" stop-color="white" stop-opacity="0"/>
    </radialGradient>
  </defs>
</svg> 