<svg width="1920" height="1080" viewBox="0 0 1920 1080" fill="none" xmlns="http://www.w3.org/2000/svg">
  <!-- Background -->
  <rect width="1920" height="1080" fill="#1D2636"/>
  
  <!-- Grid lines -->
  <g opacity="0.1">
    <path d="M0 100 H1920" stroke="#006B71" stroke-width="1"/>
    <path d="M0 200 H1920" stroke="#006B71" stroke-width="1"/>
    <path d="M0 300 H1920" stroke="#006B71" stroke-width="1"/>
    <path d="M0 400 H1920" stroke="#006B71" stroke-width="1"/>
    <path d="M0 500 H1920" stroke="#006B71" stroke-width="1"/>
    <path d="M0 600 H1920" stroke="#006B71" stroke-width="1"/>
    <path d="M0 700 H1920" stroke="#006B71" stroke-width="1"/>
    <path d="M0 800 H1920" stroke="#006B71" stroke-width="1"/>
    <path d="M0 900 H1920" stroke="#006B71" stroke-width="1"/>
    <path d="M0 1000 H1920" stroke="#006B71" stroke-width="1"/>
    
    <path d="M100 0 V1080" stroke="#006B71" stroke-width="1"/>
    <path d="M300 0 V1080" stroke="#006B71" stroke-width="1"/>
    <path d="M500 0 V1080" stroke="#006B71" stroke-width="1"/>
    <path d="M700 0 V1080" stroke="#006B71" stroke-width="1"/>
    <path d="M900 0 V1080" stroke="#006B71" stroke-width="1"/>
    <path d="M1100 0 V1080" stroke="#006B71" stroke-width="1"/>
    <path d="M1300 0 V1080" stroke="#006B71" stroke-width="1"/>
    <path d="M1500 0 V1080" stroke="#006B71" stroke-width="1"/>
    <path d="M1700 0 V1080" stroke="#006B71" stroke-width="1"/>
    <path d="M1900 0 V1080" stroke="#006B71" stroke-width="1"/>
  </g>
  
  <!-- Diamond molecule patterns -->
  <g opacity="0.15">
    <!-- Top left diamond -->
    <g transform="translate(200, 200) scale(2)">
      <circle cx="10" cy="10" r="6" fill="#006B71"/>
      <circle cx="30" cy="0" r="6" fill="#006B71"/>
      <circle cx="30" cy="20" r="6" fill="#006B71"/>
      <circle cx="45" cy="10" r="6" fill="#006B71"/>
      
      <line x1="10" y1="10" x2="30" y2="0" stroke="#006B71" stroke-width="2"/>
      <line x1="10" y1="10" x2="30" y2="20" stroke="#006B71" stroke-width="2"/>
      <line x1="30" y1="0" x2="45" y2="10" stroke="#006B71" stroke-width="2"/>
      <line x1="30" y1="20" x2="45" y2="10" stroke="#006B71" stroke-width="2"/>
    </g>
    
    <!-- Bottom right diamond -->
    <g transform="translate(1600, 800) scale(2)">
      <circle cx="10" cy="10" r="6" fill="#006B71"/>
      <circle cx="30" cy="0" r="6" fill="#006B71"/>
      <circle cx="30" cy="20" r="6" fill="#006B71"/>
      <circle cx="45" cy="10" r="6" fill="#006B71"/>
      
      <line x1="10" y1="10" x2="30" y2="0" stroke="#006B71" stroke-width="2"/>
      <line x1="10" y1="10" x2="30" y2="20" stroke="#006B71" stroke-width="2"/>
      <line x1="30" y1="0" x2="45" y2="10" stroke="#006B71" stroke-width="2"/>
      <line x1="30" y1="20" x2="45" y2="10" stroke="#006B71" stroke-width="2"/>
    </g>
    
    <!-- Middle diamond -->
    <g transform="translate(900, 400) scale(3)">
      <circle cx="10" cy="10" r="6" fill="#006B71"/>
      <circle cx="30" cy="0" r="6" fill="#006B71"/>
      <circle cx="30" cy="20" r="6" fill="#006B71"/>
      <circle cx="45" cy="10" r="6" fill="#006B71"/>
      
      <line x1="10" y1="10" x2="30" y2="0" stroke="#006B71" stroke-width="2"/>
      <line x1="10" y1="10" x2="30" y2="20" stroke="#006B71" stroke-width="2"/>
      <line x1="30" y1="0" x2="45" y2="10" stroke="#006B71" stroke-width="2"/>
      <line x1="30" y1="20" x2="45" y2="10" stroke="#006B71" stroke-width="2"/>
    </g>
  </g>
  
  <!-- Crystal structure patterns -->
  <g opacity="0.2">
    <g transform="translate(500, 600)">
      <rect width="100" height="100" stroke="#FFFFFF" stroke-width="1" fill="none"/>
      <line x1="0" y1="0" x2="100" y2="100" stroke="#FFFFFF" stroke-width="1"/>
      <line x1="100" y1="0" x2="0" y2="100" stroke="#FFFFFF" stroke-width="1"/>
      <circle cx="50" cy="50" r="3" fill="#FFFFFF"/>
    </g>
    
    <g transform="translate(1300, 300)">
      <rect width="100" height="100" stroke="#FFFFFF" stroke-width="1" fill="none"/>
      <line x1="0" y1="0" x2="100" y2="100" stroke="#FFFFFF" stroke-width="1"/>
      <line x1="100" y1="0" x2="0" y2="100" stroke="#FFFFFF" stroke-width="1"/>
      <circle cx="50" cy="50" r="3" fill="#FFFFFF"/>
    </g>
  </g>
  
  <!-- Light particles -->
  <g>
    <circle cx="250" cy="450" r="1" fill="#FFFFFF" opacity="0.8"/>
    <circle cx="480" cy="780" r="1" fill="#FFFFFF" opacity="0.8"/>
    <circle cx="720" cy="320" r="1" fill="#FFFFFF" opacity="0.8"/>
    <circle cx="1050" cy="670" r="1" fill="#FFFFFF" opacity="0.8"/>
    <circle cx="1380" cy="450" r="1" fill="#FFFFFF" opacity="0.8"/>
    <circle cx="1640" cy="210" r="1" fill="#FFFFFF" opacity="0.8"/>
    <circle cx="1780" cy="890" r="1" fill="#FFFFFF" opacity="0.8"/>
    <circle cx="850" cy="950" r="1" fill="#FFFFFF" opacity="0.8"/>
    <circle cx="350" cy="120" r="1" fill="#FFFFFF" opacity="0.8"/>
    <circle cx="1450" cy="750" r="1" fill="#FFFFFF" opacity="0.8"/>
    
    <circle cx="150" cy="350" r="2" fill="#006B71" opacity="0.8"/>
    <circle cx="580" cy="680" r="2" fill="#006B71" opacity="0.8"/>
    <circle cx="820" cy="220" r="2" fill="#006B71" opacity="0.8"/>
    <circle cx="1150" cy="570" r="2" fill="#006B71" opacity="0.8"/>
    <circle cx="1280" cy="350" r="2" fill="#006B71" opacity="0.8"/>
    <circle cx="1740" cy="310" r="2" fill="#006B71" opacity="0.8"/>
    <circle cx="1680" cy="790" r="2" fill="#006B71" opacity="0.8"/>
    <circle cx="750" cy="850" r="2" fill="#006B71" opacity="0.8"/>
    <circle cx="450" cy="220" r="2" fill="#006B71" opacity="0.8"/>
    <circle cx="1350" cy="650" r="2" fill="#006B71" opacity="0.8"/>
  </g>
</svg> 