<svg width="1440" height="900" viewBox="0 0 1440 900" fill="none" xmlns="http://www.w3.org/2000/svg">
  <!-- Основной фоновый градиент -->
  <defs>
    <linearGradient id="bgGradient" x1="0%" y1="0%" x2="100%" y2="100%">
      <stop offset="0%" stop-color="#fafefe" stop-opacity="1" />
      <stop offset="100%" stop-color="#f8fcfd" stop-opacity="1" />
    </linearGradient>
    
    <!-- Градиенты для кубов и акцентов -->
    <linearGradient id="blueGradient" x1="0%" y1="0%" x2="100%" y2="100%">
      <stop offset="0%" stop-color="#241e46" stop-opacity="0.08" />
      <stop offset="100%" stop-color="#241e46" stop-opacity="0.03" />
    </linearGradient>
    
    <linearGradient id="tealGradient" x1="100%" y1="0%" x2="0%" y2="100%">
      <stop offset="0%" stop-color="#00837f" stop-opacity="0.08" />
      <stop offset="100%" stop-color="#00837f" stop-opacity="0.03" />
    </linearGradient>

    <!-- Тонкие сетчатые паттерны -->
    <pattern id="gridPattern" width="40" height="40" patternUnits="userSpaceOnUse">
      <rect width="40" height="40" fill="none" stroke="#00837f" stroke-width="0.4" opacity="0.1" />
    </pattern>
    
    <pattern id="dotPattern" width="20" height="20" patternUnits="userSpaceOnUse">
      <circle cx="10" cy="10" r="0.6" fill="#241e46" opacity="0.1" />
    </pattern>
    
    <!-- Фильтры для эффектов -->
    <filter id="softGlow" x="-50%" y="-50%" width="200%" height="200%">
      <feGaussianBlur in="SourceGraphic" stdDeviation="5" />
    </filter>
    
    <filter id="edgeBlur" x="-50%" y="-50%" width="200%" height="200%">
      <feGaussianBlur in="SourceGraphic" stdDeviation="30" />
    </filter>
  </defs>
  
  <!-- Основной фон -->
  <rect width="1440" height="900" fill="url(#bgGradient)" />
  
  <!-- Слегка заметная сетка на заднем плане -->
  <rect width="1440" height="900" fill="url(#dotPattern)" opacity="0.5" />
  <rect width="1440" height="900" fill="url(#gridPattern)" opacity="0.3" />
  
  <!-- Размытые элементы на краях -->
  <g opacity="0.2" filter="url(#edgeBlur)">
    <!-- Левая сторона -->
    <rect x="-200" y="200" width="400" height="200" rx="100" fill="url(#tealGradient)" />
    <rect x="-200" y="500" width="300" height="300" rx="150" fill="url(#blueGradient)" />
    
    <!-- Правая сторона -->
    <rect x="1240" y="200" width="400" height="200" rx="100" fill="url(#blueGradient)" />
    <rect x="1340" y="500" width="300" height="300" rx="150" fill="url(#tealGradient)" />
  </g>
  
  <!-- Прозрачные 3D структуры в стиле предоставленного изображения - левый край -->
  <g opacity="0.25">
    <!-- Куб 1 - внешний -->
    <path d="M50,200 L150,150 L250,200 L150,250 Z" fill="url(#tealGradient)" />
    <path d="M50,200 L50,350 L150,400 L150,250 Z" fill="url(#blueGradient)" />
    <path d="M150,250 L150,400 L250,350 L250,200 Z" fill="url(#tealGradient)" opacity="0.7" />
    
    <!-- Куб 2 - внутри -->
    <path d="M100,225 L150,200 L200,225 L150,250 Z" fill="#241e46" opacity="0.07" />
    <path d="M100,225 L100,300 L150,325 L150,250 Z" fill="#00837f" opacity="0.07" />
    <path d="M150,250 L150,325 L200,300 L200,225 Z" fill="#241e46" opacity="0.07" />
    
    <!-- Куб 3 - нижний -->
    <path d="M100,600 L200,550 L300,600 L200,650 Z" fill="url(#blueGradient)" />
    <path d="M100,600 L100,700 L200,750 L200,650 Z" fill="url(#tealGradient)" />
    <path d="M200,650 L200,750 L300,700 L300,600 Z" fill="url(#blueGradient)" opacity="0.7" />
  </g>
  
  <!-- Прозрачные 3D структуры - правый край -->
  <g opacity="0.25">
    <!-- Куб 1 - внешний -->
    <path d="M1190,200 L1290,150 L1390,200 L1290,250 Z" fill="url(#blueGradient)" />
    <path d="M1190,200 L1190,350 L1290,400 L1290,250 Z" fill="url(#tealGradient)" />
    <path d="M1290,250 L1290,400 L1390,350 L1390,200 Z" fill="url(#blueGradient)" opacity="0.7" />
    
    <!-- Куб 2 - внутри -->
    <path d="M1240,225 L1290,200 L1340,225 L1290,250 Z" fill="#00837f" opacity="0.07" />
    <path d="M1240,225 L1240,300 L1290,325 L1290,250 Z" fill="#241e46" opacity="0.07" />
    <path d="M1290,250 L1290,325 L1340,300 L1340,225 Z" fill="#00837f" opacity="0.07" />
    
    <!-- Куб 3 - нижний -->
    <path d="M1140,600 L1240,550 L1340,600 L1240,650 Z" fill="url(#tealGradient)" />
    <path d="M1140,600 L1140,700 L1240,750 L1240,650 Z" fill="url(#blueGradient)" />
    <path d="M1240,650 L1240,750 L1340,700 L1340,600 Z" fill="url(#tealGradient)" opacity="0.7" />
  </g>
  
  <!-- Кубы на среднем расстоянии от центра - слева -->
  <g opacity="0.15">
    <path d="M350,300 L400,275 L450,300 L400,325 Z" fill="url(#tealGradient)" />
    <path d="M350,300 L350,350 L400,375 L400,325 Z" fill="url(#blueGradient)" />
    <path d="M400,325 L400,375 L450,350 L450,300 Z" fill="url(#tealGradient)" opacity="0.7" />
    
    <path d="M400,500 L450,475 L500,500 L450,525 Z" fill="url(#blueGradient)" />
    <path d="M400,500 L400,550 L450,575 L450,525 Z" fill="url(#tealGradient)" />
    <path d="M450,525 L450,575 L500,550 L500,500 Z" fill="url(#blueGradient)" opacity="0.7" />
  </g>
  
  <!-- Кубы на среднем расстоянии от центра - справа -->
  <g opacity="0.15">
    <path d="M990,300 L1040,275 L1090,300 L1040,325 Z" fill="url(#blueGradient)" />
    <path d="M990,300 L990,350 L1040,375 L1040,325 Z" fill="url(#tealGradient)" />
    <path d="M1040,325 L1040,375 L1090,350 L1090,300 Z" fill="url(#blueGradient)" opacity="0.7" />
    
    <path d="M940,500 L990,475 L1040,500 L990,525 Z" fill="url(#tealGradient)" />
    <path d="M940,500 L940,550 L990,575 L990,525 Z" fill="url(#blueGradient)" />
    <path d="M990,525 L990,575 L1040,550 L1040,500 Z" fill="url(#tealGradient)" opacity="0.7" />
  </g>
  
  <!-- Центральная область - минимальные элементы, но более заметные -->
  <g opacity="0.1">
    <!-- Сетка линий координат -->
    <line x1="720" y1="200" x2="720" y2="700" stroke="#00837f" stroke-width="0.5" />
    <line x1="520" y1="450" x2="920" y2="450" stroke="#241e46" stroke-width="0.5" />
    
    <!-- Легкие геометрические направляющие -->
    <circle cx="720" cy="450" r="100" stroke="#00837f" stroke-width="0.6" fill="none" />
    <circle cx="720" cy="450" r="50" stroke="#241e46" stroke-width="0.6" fill="none" />
    
    <!-- Несколько тонких линий для создания перспективы -->
    <line x1="620" y1="350" x2="820" y2="350" stroke="#00837f" stroke-width="0.5" />
    <line x1="620" y1="550" x2="820" y2="550" stroke="#00837f" stroke-width="0.5" />
    <line x1="620" y1="350" x2="620" y2="550" stroke="#241e46" stroke-width="0.5" />
    <line x1="820" y1="350" x2="820" y2="550" stroke="#241e46" stroke-width="0.5" />
    
    <!-- Линии перспективы от центра -->
    <line x1="720" y1="450" x2="620" y2="350" stroke="#00837f" stroke-width="0.4" />
    <line x1="720" y1="450" x2="820" y2="350" stroke="#241e46" stroke-width="0.4" />
    <line x1="720" y1="450" x2="620" y2="550" stroke="#241e46" stroke-width="0.4" />
    <line x1="720" y1="450" x2="820" y2="550" stroke="#00837f" stroke-width="0.4" />
  </g>
  
  <!-- Очень маленький куб в центре -->
  <g opacity="0.15">
    <path d="M700,430 L720,420 L740,430 L720,440 Z" fill="#00837f" />
    <path d="M700,430 L700,450 L720,460 L720,440 Z" fill="#241e46" />
    <path d="M720,440 L720,460 L740,450 L740,430 Z" fill="#00837f" opacity="0.7" />
  </g>
  
  <!-- Тонкие соединяющие линии между элементами -->
  <g opacity="0.1">
    <!-- Горизонтальные волнистые линии -->
    <path d="M150,300 C 250,270 350,320 450,280 C 550,240 650,270 750,240 C 850,210 950,240 1050,270 C 1150,300 1250,260 1350,300" 
         stroke="#00837f" stroke-width="0.8" fill="none" />
    
    <path d="M150,600 C 250,630 350,580 450,620 C 550,660 650,630 750,660 C 850,690 950,660 1050,630 C 1150,600 1250,640 1350,600" 
         stroke="#241e46" stroke-width="0.8" fill="none" />
  </g>
  
  <!-- Легкие градиентные акценты на пересечениях -->
  <g filter="url(#softGlow)">
    <circle cx="450" cy="280" r="4" fill="#00837f" opacity="0.25" />
    <circle cx="750" cy="240" r="4" fill="#241e46" opacity="0.25" />
    <circle cx="1050" cy="270" r="4" fill="#00837f" opacity="0.25" />
    
    <circle cx="450" cy="620" r="4" fill="#241e46" opacity="0.25" />
    <circle cx="750" cy="660" r="4" fill="#00837f" opacity="0.25" />
    <circle cx="1050" cy="630" r="4" fill="#241e46" opacity="0.25" />
    
    <circle cx="720" cy="450" r="5" fill="#00837f" opacity="0.3" />
  </g>
  
  <!-- Тонкие линии, создающие сетку в перспективе -->
  <g opacity="0.08">
    <line x1="320" y1="200" x2="1120" y2="200" stroke="#00837f" stroke-width="0.5" />
    <line x1="320" y1="700" x2="1120" y2="700" stroke="#00837f" stroke-width="0.5" />
    <line x1="320" y1="200" x2="320" y2="700" stroke="#241e46" stroke-width="0.5" />
    <line x1="1120" y1="200" x2="1120" y2="700" stroke="#241e46" stroke-width="0.5" />
    
    <line x1="320" y1="200" x2="520" y2="300" stroke="#00837f" stroke-width="0.4" />
    <line x1="1120" y1="200" x2="920" y2="300" stroke="#00837f" stroke-width="0.4" />
    <line x1="320" y1="700" x2="520" y2="600" stroke="#241e46" stroke-width="0.4" />
    <line x1="1120" y1="700" x2="920" y2="600" stroke="#241e46" stroke-width="0.4" />
    
    <line x1="520" y1="300" x2="920" y2="300" stroke="#00837f" stroke-width="0.4" />
    <line x1="520" y1="600" x2="920" y2="600" stroke="#241e46" stroke-width="0.4" />
    <line x1="520" y1="300" x2="520" y2="600" stroke="#00837f" stroke-width="0.4" />
    <line x1="920" y1="300" x2="920" y2="600" stroke="#241e46" stroke-width="0.4" />
  </g>
  
  <!-- Тонкие дополнительные акценты для глубины -->
  <g opacity="0.06">
    <rect x="370" y="250" width="700" height="400" stroke="#00837f" stroke-width="0.6" fill="none" rx="5" />
    <rect x="420" y="300" width="600" height="300" stroke="#241e46" stroke-width="0.6" fill="none" rx="5" />
    <rect x="470" y="350" width="500" height="200" stroke="#00837f" stroke-width="0.6" fill="none" rx="5" />
  </g>
</svg> 