<svg width="1440" height="900" viewBox="0 0 1440 900" fill="none" xmlns="http://www.w3.org/2000/svg">
  <!-- Основной фоновый градиент -->
  <defs>
    <linearGradient id="bgGradient" x1="0%" y1="0%" x2="100%" y2="100%">
      <stop offset="0%" stop-color="#f8fcfc" stop-opacity="1" />
      <stop offset="100%" stop-color="#f2f8fb" stop-opacity="1" />
    </linearGradient>
    
    <!-- Градиенты для элементов времени -->
    <linearGradient id="timeGradient1" x1="0%" y1="0%" x2="100%" y2="100%">
      <stop offset="0%" stop-color="#00837f" stop-opacity="0.07" />
      <stop offset="100%" stop-color="#00837f" stop-opacity="0.01" />
    </linearGradient>
    
    <linearGradient id="timeGradient2" x1="100%" y1="0%" x2="0%" y2="100%">
      <stop offset="0%" stop-color="#241e46" stop-opacity="0.07" />
      <stop offset="100%" stop-color="#241e46" stop-opacity="0.01" />
    </linearGradient>
    
    <!-- Градиенты для сверкающих эффектов -->
    <radialGradient id="sparkTeal" cx="50%" cy="50%" r="50%" fx="50%" fy="50%">
      <stop offset="0%" stop-color="#00837f" stop-opacity="0.3" />
      <stop offset="100%" stop-color="#00837f" stop-opacity="0" />
    </radialGradient>
    
    <radialGradient id="sparkBlue" cx="50%" cy="50%" r="50%" fx="50%" fy="50%">
      <stop offset="0%" stop-color="#241e46" stop-opacity="0.3" />
      <stop offset="100%" stop-color="#241e46" stop-opacity="0" />
    </radialGradient>
    
    <!-- Фильтры для создания эффектов -->
    <filter id="softGlow" x="-20%" y="-20%" width="140%" height="140%">
      <feGaussianBlur in="SourceGraphic" stdDeviation="2" />
    </filter>
    
    <filter id="blurEffect" x="-50%" y="-50%" width="200%" height="200%">
      <feGaussianBlur in="SourceGraphic" stdDeviation="30" />
    </filter>
    
    <!-- Шаблон для точек -->
    <pattern id="timePatternDots" width="80" height="80" patternUnits="userSpaceOnUse">
      <circle cx="40" cy="40" r="0.5" fill="#00837f" opacity="0.1" />
      <circle cx="20" cy="20" r="0.3" fill="#241e46" opacity="0.1" />
      <circle cx="60" cy="20" r="0.3" fill="#241e46" opacity="0.1" />
      <circle cx="20" cy="60" r="0.3" fill="#241e46" opacity="0.1" />
      <circle cx="60" cy="60" r="0.3" fill="#241e46" opacity="0.1" />
    </pattern>
  </defs>
  
  <!-- Фоновый прямоугольник с градиентом -->
  <rect width="1440" height="900" fill="url(#bgGradient)" />
  
  <!-- Легкий фоновый узор -->
  <rect width="1440" height="900" fill="url(#timePatternDots)" opacity="0.2" />
  
  <!-- Большие расплывчатые формы -->
  <g opacity="0.3" filter="url(#blurEffect)">
    <!-- Левая часть -->
    <path d="M-200,250 C0,150 150,350 0,550 C-150,750 -300,450 -200,250 Z" fill="url(#timeGradient1)" />
    <path d="M-100,650 C100,550 50,750 -100,850 C-250,950 -300,750 -100,650 Z" fill="url(#timeGradient2)" />
    
    <!-- Правая часть -->
    <path d="M1640,250 C1440,150 1290,350 1440,550 C1590,750 1740,450 1640,250 Z" fill="url(#timeGradient2)" />
    <path d="M1540,650 C1340,550 1390,750 1540,850 C1690,950 1740,750 1540,650 Z" fill="url(#timeGradient1)" />
  </g>
  
  <!-- Плавная временная линия (замена спирали) -->
  <path d="M 0,450 
           C 200,380 280,520 400,450 
           C 520,380 580,480 720,450 
           C 860,420 940,500 1040,450 
           C 1140,400 1240,480 1440,450" 
        stroke="#00837f" 
        stroke-width="1" 
        fill="none" 
        opacity="0.07"
        stroke-dasharray="0,12,8,4" />
  
  <path d="M 0,500 
           C 200,570 280,430 400,500
           C 520,570 580,470 720,500
           C 860,530 940,450 1040,500
           C 1140,550 1240,470 1440,500" 
        stroke="#241e46" 
        stroke-width="1" 
        fill="none" 
        opacity="0.07"
        stroke-dasharray="0,4,8,12" />
  
  <!-- Парящие временные капсулы - овалы с размытыми краями -->
  <g opacity="0.15" filter="url(#softGlow)">
    <ellipse cx="200" cy="250" rx="70" ry="40" transform="rotate(-15 200 250)" fill="url(#timeGradient1)" />
    <ellipse cx="500" cy="350" rx="60" ry="30" transform="rotate(10 500 350)" fill="url(#timeGradient2)" />
    <ellipse cx="800" cy="250" rx="50" ry="35" transform="rotate(-10 800 250)" fill="url(#timeGradient1)" />
    <ellipse cx="1100" cy="350" rx="65" ry="35" transform="rotate(15 1100 350)" fill="url(#timeGradient2)" />
    
    <ellipse cx="300" cy="650" rx="65" ry="35" transform="rotate(15 300 650)" fill="url(#timeGradient2)" />
    <ellipse cx="600" cy="550" rx="50" ry="35" transform="rotate(-10 600 550)" fill="url(#timeGradient1)" />
    <ellipse cx="900" cy="650" rx="60" ry="30" transform="rotate(10 900 650)" fill="url(#timeGradient2)" />
    <ellipse cx="1200" cy="550" rx="70" ry="40" transform="rotate(-15 1200 550)" fill="url(#timeGradient1)" />
  </g>
  
  <!-- Временные маркеры с соединяющими путями -->
  <g opacity="0.2">
    <!-- Путь эволюции левой стороны -->
    <path d="M 150,200 
             C 220,250 320,220 370,320 
             C 420,420 380,500 300,570 
             C 220,640 250,700 320,750" 
          stroke="#00837f" 
          stroke-width="0.5" 
          fill="none" 
          stroke-dasharray="2 4" />
    
    <!-- Временные маркеры левой стороны -->
    <circle cx="150" cy="200" r="8" fill="url(#sparkTeal)" />
    <circle cx="370" cy="320" r="6" fill="url(#sparkBlue)" />
    <circle cx="300" cy="570" r="7" fill="url(#sparkTeal)" />
    <circle cx="320" cy="750" r="5" fill="url(#sparkBlue)" />
    
    <!-- Путь эволюции правой стороны -->
    <path d="M 1290,200 
             C 1220,250 1120,220 1070,320 
             C 1020,420 1060,500 1140,570 
             C 1220,640 1190,700 1120,750" 
          stroke="#241e46" 
          stroke-width="0.5" 
          fill="none" 
          stroke-dasharray="2 4" />
    
    <!-- Временные маркеры правой стороны -->
    <circle cx="1290" cy="200" r="8" fill="url(#sparkBlue)" />
    <circle cx="1070" cy="320" r="6" fill="url(#sparkTeal)" />
    <circle cx="1140" cy="570" r="7" fill="url(#sparkBlue)" />
    <circle cx="1120" cy="750" r="5" fill="url(#sparkTeal)" />
  </g>
  
  <!-- Акцентная группа в центре - год компании -->
  <g opacity="0.3" transform="translate(720 450)">
    <circle cx="0" cy="0" r="60" fill="none" stroke="#00837f" stroke-width="0.5" stroke-dasharray="1 3" />
    <circle cx="0" cy="0" r="40" fill="none" stroke="#241e46" stroke-width="0.5" stroke-dasharray="1 3" />
    
    <!-- Лучи времени -->
    <g opacity="0.4">
      <path d="M-50,-50 L-35,-35" stroke="#00837f" stroke-width="0.8" />
      <path d="M50,-50 L35,-35" stroke="#241e46" stroke-width="0.8" />
      <path d="M-50,50 L-35,35" stroke="#241e46" stroke-width="0.8" />
      <path d="M50,50 L35,35" stroke="#00837f" stroke-width="0.8" />
      
      <path d="M0,-60 L0,-40" stroke="#00837f" stroke-width="0.8" />
      <path d="M60,0 L40,0" stroke="#241e46" stroke-width="0.8" />
      <path d="M0,60 L0,40" stroke="#00837f" stroke-width="0.8" />
      <path d="M-60,0 L-40,0" stroke="#241e46" stroke-width="0.8" />
    </g>
    
    <circle cx="0" cy="0" r="5" fill="#00837f" opacity="0.8" filter="url(#softGlow)" />
  </g>
  
  <!-- Плавающие молекулярные структуры - имитация временных частиц -->
  <g opacity="0.15">
    <!-- Структура 1 -->
    <circle cx="250" cy="300" r="2" fill="#00837f" />
    <circle cx="280" cy="280" r="2" fill="#00837f" />
    <circle cx="270" cy="330" r="2" fill="#00837f" />
    <path d="M250,300 L280,280 L270,330 Z" stroke="#00837f" stroke-width="0.2" fill="none" />
    
    <!-- Структура 2 -->
    <circle cx="1150" cy="300" r="2" fill="#241e46" />
    <circle cx="1180" cy="280" r="2" fill="#241e46" />
    <circle cx="1170" cy="330" r="2" fill="#241e46" />
    <path d="M1150,300 L1180,280 L1170,330 Z" stroke="#241e46" stroke-width="0.2" fill="none" />
    
    <!-- Структура 3 -->
    <circle cx="450" cy="600" r="2" fill="#241e46" />
    <circle cx="480" cy="580" r="2" fill="#241e46" />
    <circle cx="470" cy="630" r="2" fill="#241e46" />
    <path d="M450,600 L480,580 L470,630 Z" stroke="#241e46" stroke-width="0.2" fill="none" />
    
    <!-- Структура 4 -->
    <circle cx="950" cy="600" r="2" fill="#00837f" />
    <circle cx="980" cy="580" r="2" fill="#00837f" />
    <circle cx="970" cy="630" r="2" fill="#00837f" />
    <path d="M950,600 L980,580 L970,630 Z" stroke="#00837f" stroke-width="0.2" fill="none" />
  </g>
  
  <!-- Разбросанные акцентные точки -->
  <g opacity="0.1">
    <circle cx="150" cy="150" r="1.5" fill="#00837f" />
    <circle cx="350" cy="120" r="1" fill="#241e46" />
    <circle cx="550" cy="180" r="1.5" fill="#00837f" />
    <circle cx="750" cy="140" r="1" fill="#241e46" />
    <circle cx="950" cy="170" r="1.5" fill="#00837f" />
    <circle cx="1150" cy="130" r="1" fill="#241e46" />
    <circle cx="1350" cy="160" r="1.5" fill="#00837f" />
    
    <circle cx="250" cy="780" r="1" fill="#00837f" />
    <circle cx="450" cy="750" r="1.5" fill="#241e46" />
    <circle cx="650" cy="770" r="1" fill="#00837f" />
    <circle cx="850" cy="740" r="1.5" fill="#241e46" />
    <circle cx="1050" cy="760" r="1" fill="#00837f" />
    <circle cx="1250" cy="730" r="1.5" fill="#241e46" />
  </g>
</svg> 