<svg width="1440" height="900" viewBox="0 0 1440 900" fill="none" xmlns="http://www.w3.org/2000/svg">
  <!-- Основной фоновый градиент -->
  <defs>
    <linearGradient id="bgGradient" x1="0%" y1="0%" x2="100%" y2="100%">
      <stop offset="0%" stop-color="#032d42" stop-opacity="1" />
      <stop offset="50%" stop-color="#042536" stop-opacity="1" />
      <stop offset="100%" stop-color="#052130" stop-opacity="1" />
    </linearGradient>
    
    <!-- Градиенты для узоров -->
    <linearGradient id="patternGradient1" x1="0%" y1="0%" x2="100%" y2="100%">
      <stop offset="0%" stop-color="#00837f" stop-opacity="0.6" />
      <stop offset="100%" stop-color="#00837f" stop-opacity="0.2" />
    </linearGradient>
    
    <linearGradient id="patternGradient2" x1="0%" y1="100%" x2="100%" y2="0%">
      <stop offset="0%" stop-color="#241e46" stop-opacity="0.6" />
      <stop offset="100%" stop-color="#241e46" stop-opacity="0.2" />
    </linearGradient>
    
    <linearGradient id="accentGradient" x1="0%" y1="0%" x2="100%" y2="100%">
      <stop offset="0%" stop-color="#00837f" stop-opacity="0.4" />
      <stop offset="100%" stop-color="#241e46" stop-opacity="0.4" />
    </linearGradient>
    
    <!-- Фильтр для мягкой тени -->
    <filter id="softShadow" x="-20%" y="-20%" width="140%" height="140%">
      <feGaussianBlur in="SourceAlpha" stdDeviation="3" />
      <feOffset dx="0" dy="0" result="offsetblur" />
      <feComponentTransfer>
        <feFuncA type="linear" slope="0.15" />
      </feComponentTransfer>
      <feMerge>
        <feMergeNode />
        <feMergeNode in="SourceGraphic" />
      </feMerge>
    </filter>
    
    <!-- Фильтр для свечения -->
    <filter id="glow" x="-20%" y="-20%" width="140%" height="140%">
      <feGaussianBlur in="SourceGraphic" stdDeviation="5" />
      <feComponentTransfer>
        <feFuncA type="linear" slope="0.3" />
      </feComponentTransfer>
      <feMerge>
        <feMergeNode />
        <feMergeNode in="SourceGraphic" />
      </feMerge>
    </filter>
  </defs>
  
  <!-- Фоновый прямоугольник с градиентом -->
  <rect width="1440" height="900" fill="url(#bgGradient)" />
  
  <!-- Геометрический паттерн на фоне -->
  <g opacity="0.1">
    <rect x="0" y="0" width="1440" height="900" stroke="#00837f" stroke-width="0.5" stroke-dasharray="10 10" />
    <line x1="0" y1="0" x2="1440" y2="900" stroke="#00837f" stroke-width="0.5" />
    <line x1="1440" y1="0" x2="0" y2="900" stroke="#00837f" stroke-width="0.5" />
  </g>
  
  <!-- Стилизованные узоры по краям -->
  <g opacity="0.8">
    <!-- Верхний левый угол -->
    <path d="M0,0 L300,0 L0,300 Z" fill="url(#patternGradient1)" filter="url(#softShadow)" />
    
    <!-- Нижний правый угол -->
    <path d="M1440,900 L1140,900 L1440,600 Z" fill="url(#patternGradient1)" filter="url(#softShadow)" />
    
    <!-- Верхний правый угол -->
    <path d="M1440,0 L1440,300 L1140,0 Z" fill="url(#patternGradient2)" filter="url(#softShadow)" />
    
    <!-- Нижний левый угол -->
    <path d="M0,900 L0,600 L300,900 Z" fill="url(#patternGradient2)" filter="url(#softShadow)" />
  </g>
  
  <!-- Акцентный элемент по центру -->
  <circle cx="720" cy="450" r="200" fill="url(#accentGradient)" opacity="0.05" filter="url(#glow)" />
  
  <!-- Тонкие линии, соединяющие углы -->
  <g opacity="0.25">
    <path d="M0,200 C200,250 400,300 720,300 C1040,300 1240,250 1440,200" stroke="#00837f" stroke-width="1" fill="none" />
    <path d="M0,700 C200,650 400,600 720,600 C1040,600 1240,650 1440,700" stroke="#241e46" stroke-width="1" fill="none" />
  </g>
  
  <!-- Дополнительные декоративные элементы по бокам -->
  <g opacity="0.4">
    <!-- Левая сторона -->
    <rect x="40" y="350" width="120" height="3" rx="1.5" fill="#00837f" />
    <rect x="40" y="370" width="90" height="3" rx="1.5" fill="#00837f" />
    <rect x="40" y="390" width="150" height="3" rx="1.5" fill="#00837f" />
    <rect x="40" y="410" width="60" height="3" rx="1.5" fill="#00837f" />
    <rect x="40" y="430" width="105" height="3" rx="1.5" fill="#00837f" />
    <rect x="40" y="450" width="75" height="3" rx="1.5" fill="#00837f" />
    <rect x="40" y="470" width="135" height="3" rx="1.5" fill="#00837f" />
    
    <!-- Правая сторона -->
    <rect x="1280" y="350" width="120" height="3" rx="1.5" fill="#241e46" />
    <rect x="1310" y="370" width="90" height="3" rx="1.5" fill="#241e46" />
    <rect x="1250" y="390" width="150" height="3" rx="1.5" fill="#241e46" />
    <rect x="1340" y="410" width="60" height="3" rx="1.5" fill="#241e46" />
    <rect x="1295" y="430" width="105" height="3" rx="1.5" fill="#241e46" />
    <rect x="1325" y="450" width="75" height="3" rx="1.5" fill="#241e46" />
    <rect x="1265" y="470" width="135" height="3" rx="1.5" fill="#241e46" />
  </g>
  
  <!-- Акцентные точки -->
  <g opacity="0.8" filter="url(#glow)">
    <circle cx="720" cy="200" r="4" fill="#00837f" />
    <circle cx="720" cy="450" r="4" fill="#ffffff" />
    <circle cx="720" cy="700" r="4" fill="#00837f" />
    
    <circle cx="620" cy="250" r="3" fill="#241e46" />
    <circle cx="620" cy="450" r="3" fill="#00837f" />
    <circle cx="620" cy="650" r="3" fill="#241e46" />
    
    <circle cx="820" cy="250" r="3" fill="#00837f" />
    <circle cx="820" cy="450" r="3" fill="#241e46" />
    <circle cx="820" cy="650" r="3" fill="#00837f" />
    
    <!-- Дополнительные точки -->
    <circle cx="670" cy="320" r="2" fill="#00837f" />
    <circle cx="770" cy="320" r="2" fill="#241e46" />
    <circle cx="670" cy="580" r="2" fill="#241e46" />
    <circle cx="770" cy="580" r="2" fill="#00837f" />
  </g>
  
  <!-- Декоративные ромбы -->
  <g opacity="0.25">
    <rect x="695" y="375" width="50" height="50" transform="rotate(45 720 400)" stroke="#00837f" stroke-width="1" fill="none" />
    <rect x="695" y="425" width="50" height="50" transform="rotate(45 720 450)" stroke="#241e46" stroke-width="1" fill="none" />
    <rect x="695" y="475" width="50" height="50" transform="rotate(45 720 500)" stroke="#00837f" stroke-width="1" fill="none" />
  </g>
</svg> 