<svg width="1440" height="900" viewBox="0 0 1440 900" fill="none" xmlns="http://www.w3.org/2000/svg">
  <!-- Основной фоновый градиент - стал почти белым -->
  <defs>
    <linearGradient id="bgGradient" x1="0%" y1="0%" x2="100%" y2="100%">
      <stop offset="0%" stop-color="#f9fdff" stop-opacity="1" />
      <stop offset="100%" stop-color="#f4faff" stop-opacity="1" />
    </linearGradient>
    
    <!-- Градиент для квадратов - еще светлее -->
    <linearGradient id="squareGradient" x1="0%" y1="0%" x2="100%" y2="100%">
      <stop offset="0%" stop-color="#ffffff" stop-opacity="0.7" />
      <stop offset="100%" stop-color="#f9fcff" stop-opacity="0.7" />
    </linearGradient>
    
    <!-- Фильтр для создания легкой тени - уменьшен эффект -->
    <filter id="shadow" x="-20%" y="-20%" width="140%" height="140%">
      <feGaussianBlur in="SourceAlpha" stdDeviation="2" />
      <feOffset dx="1" dy="1" result="offsetblur" />
      <feComponentTransfer>
        <feFuncA type="linear" slope="0.08" />
      </feComponentTransfer>
      <feMerge>
        <feMergeNode />
        <feMergeNode in="SourceGraphic" />
      </feMerge>
    </filter>
  </defs>
  
  <!-- Фоновый прямоугольник с градиентом -->
  <rect width="1440" height="900" fill="url(#bgGradient)" />
  
  <!-- Крупные квадраты с тенями - уменьшена прозрачность -->
  <g opacity="0.4">
    <!-- Левый край -->
    <rect x="200" y="50" width="160" height="160" rx="2" fill="url(#squareGradient)" filter="url(#shadow)" />
    <rect x="240" y="300" width="140" height="140" rx="2" fill="url(#squareGradient)" filter="url(#shadow)" />
    <rect x="210" y="530" width="180" height="180" rx="2" fill="url(#squareGradient)" filter="url(#shadow)" />
    <rect x="250" y="750" width="150" height="150" rx="2" fill="url(#squareGradient)" filter="url(#shadow)" />
    
    <!-- Правый край -->
    <rect x="1080" y="70" width="160" height="160" rx="2" fill="url(#squareGradient)" filter="url(#shadow)" />
    <rect x="1050" y="320" width="140" height="140" rx="2" fill="url(#squareGradient)" filter="url(#shadow)" />
    <rect x="1060" y="550" width="180" height="180" rx="2" fill="url(#squareGradient)" filter="url(#shadow)" />
    <rect x="1040" y="750" width="150" height="150" rx="2" fill="url(#squareGradient)" filter="url(#shadow)" />
  </g>
  
  <!-- Средние квадраты - уменьшена прозрачность -->
  <g opacity="0.3">
    <!-- Левый край -->
    <rect x="280" y="120" width="100" height="100" rx="2" fill="url(#squareGradient)" filter="url(#shadow)" />
    <rect x="310" y="270" width="80" height="80" rx="2" fill="url(#squareGradient)" filter="url(#shadow)" />
    <rect x="270" y="440" width="90" height="90" rx="2" fill="url(#squareGradient)" filter="url(#shadow)" />
    <rect x="320" y="620" width="90" height="90" rx="2" fill="url(#squareGradient)" filter="url(#shadow)" />
    
    <!-- Правый край -->
    <rect x="1060" y="150" width="100" height="100" rx="2" fill="url(#squareGradient)" filter="url(#shadow)" />
    <rect x="1030" y="290" width="80" height="80" rx="2" fill="url(#squareGradient)" filter="url(#shadow)" />
    <rect x="1080" y="460" width="90" height="90" rx="2" fill="url(#squareGradient)" filter="url(#shadow)" />
    <rect x="1030" y="640" width="90" height="90" rx="2" fill="url(#squareGradient)" filter="url(#shadow)" />
    
    <!-- Очень редкие в центре (очень легкие элементы) -->
    <rect x="650" y="120" width="60" height="60" rx="2" fill="url(#squareGradient)" filter="url(#shadow)" opacity="0.15" />
    <rect x="730" y="780" width="70" height="70" rx="2" fill="url(#squareGradient)" filter="url(#shadow)" opacity="0.15" />
  </g>
  
  <!-- Маленькие квадраты - уменьшена прозрачность -->
  <g opacity="0.25">
    <!-- Левый край -->
    <rect x="230" y="180" width="50" height="50" rx="2" fill="url(#squareGradient)" filter="url(#shadow)" />
    <rect x="270" y="350" width="40" height="40" rx="2" fill="url(#squareGradient)" filter="url(#shadow)" />
    <rect x="250" y="500" width="35" height="35" rx="2" fill="url(#squareGradient)" filter="url(#shadow)" />
    <rect x="290" y="680" width="50" height="50" rx="2" fill="url(#squareGradient)" filter="url(#shadow)" />
    <rect x="340" y="720" width="30" height="30" rx="2" fill="url(#squareGradient)" filter="url(#shadow)" />
    
    <!-- Правый край -->
    <rect x="1110" y="200" width="50" height="50" rx="2" fill="url(#squareGradient)" filter="url(#shadow)" />
    <rect x="1130" y="370" width="40" height="40" rx="2" fill="url(#squareGradient)" filter="url(#shadow)" />
    <rect x="1100" y="520" width="35" height="35" rx="2" fill="url(#squareGradient)" filter="url(#shadow)" />
    <rect x="1120" y="690" width="50" height="50" rx="2" fill="url(#squareGradient)" filter="url(#shadow)" />
    <rect x="1070" y="740" width="30" height="30" rx="2" fill="url(#squareGradient)" filter="url(#shadow)" />
    
    <!-- Добавляем больше маленьких квадратов между большими -->
    <rect x="490" y="240" width="25" height="25" rx="2" fill="url(#squareGradient)" filter="url(#shadow)" opacity="0.15" />
    <rect x="910" y="250" width="25" height="25" rx="2" fill="url(#squareGradient)" filter="url(#shadow)" opacity="0.15" />
    <rect x="680" y="450" width="20" height="20" rx="2" fill="url(#squareGradient)" filter="url(#shadow)" opacity="0.15" />
    <rect x="760" y="460" width="20" height="20" rx="2" fill="url(#squareGradient)" filter="url(#shadow)" opacity="0.15" />
    <rect x="670" y="650" width="25" height="25" rx="2" fill="url(#squareGradient)" filter="url(#shadow)" opacity="0.15" />
    <rect x="770" y="660" width="25" height="25" rx="2" fill="url(#squareGradient)" filter="url(#shadow)" opacity="0.15" />
  </g>
  
  <!-- Доп. элементы еще ближе к краям - уменьшена прозрачность -->
  <g opacity="0.2">
    <!-- Левый край - дополнительные квадраты -->
    <rect x="380" y="200" width="70" height="70" rx="2" fill="url(#squareGradient)" filter="url(#shadow)" opacity="0.25" />
    <rect x="400" y="400" width="85" height="85" rx="2" fill="url(#squareGradient)" filter="url(#shadow)" opacity="0.25" />
    <rect x="420" y="630" width="65" height="65" rx="2" fill="url(#squareGradient)" filter="url(#shadow)" opacity="0.25" />
    
    <!-- Правый край - дополнительные квадраты -->
    <rect x="960" y="180" width="75" height="75" rx="2" fill="url(#squareGradient)" filter="url(#shadow)" opacity="0.25" />
    <rect x="940" y="420" width="90" height="90" rx="2" fill="url(#squareGradient)" filter="url(#shadow)" opacity="0.25" />
    <rect x="960" y="600" width="80" height="80" rx="2" fill="url(#squareGradient)" filter="url(#shadow)" opacity="0.25" />
  </g>
  
  <!-- Очень легкие акценты в центральной части - уменьшена прозрачность -->
  <g opacity="0.03">
    <circle cx="720" cy="220" r="5" fill="#00837f" />
    <circle cx="650" cy="350" r="4" fill="#00837f" />
    <circle cx="790" cy="480" r="5" fill="#00837f" />
    <circle cx="670" cy="600" r="4" fill="#00837f" />
    <circle cx="750" cy="720" r="5" fill="#00837f" />
  </g>
</svg> 