<svg width="1440" height="900" viewBox="0 0 1440 900" fill="none" xmlns="http://www.w3.org/2000/svg">
  <!-- Основной фоновый градиент -->
  <defs>
    <linearGradient id="bgGradient" x1="0%" y1="0%" x2="100%" y2="100%">
      <stop offset="0%" stop-color="#fafcfc" stop-opacity="1" />
      <stop offset="100%" stop-color="#f6fbfb" stop-opacity="1" />
    </linearGradient>
    
    <!-- Градиенты для аналитических графиков -->
    <linearGradient id="chartGradient1" x1="0%" y1="0%" x2="0%" y2="100%">
      <stop offset="0%" stop-color="#00837f" stop-opacity="0.2" />
      <stop offset="100%" stop-color="#00837f" stop-opacity="0.05" />
    </linearGradient>
    
    <linearGradient id="chartGradient2" x1="0%" y1="0%" x2="0%" y2="100%">
      <stop offset="0%" stop-color="#241e46" stop-opacity="0.2" />
      <stop offset="100%" stop-color="#241e46" stop-opacity="0.05" />
    </linearGradient>
    
    <linearGradient id="lineGradient" x1="0%" y1="0%" x2="100%" y2="0%">
      <stop offset="0%" stop-color="#00837f" stop-opacity="0.2" />
      <stop offset="50%" stop-color="#241e46" stop-opacity="0.2" />
      <stop offset="100%" stop-color="#00837f" stop-opacity="0.2" />
    </linearGradient>
    
    <!-- Фильтр для мягкой тени -->
    <filter id="softShadow" x="-20%" y="-20%" width="140%" height="140%">
      <feGaussianBlur in="SourceAlpha" stdDeviation="1" />
      <feOffset dx="0" dy="0" result="offsetblur" />
      <feComponentTransfer>
        <feFuncA type="linear" slope="0.07" />
      </feComponentTransfer>
      <feMerge>
        <feMergeNode />
        <feMergeNode in="SourceGraphic" />
      </feMerge>
    </filter>
    
    <!-- Паттерн для сетки -->
    <pattern id="gridPattern" x="0" y="0" width="20" height="20" patternUnits="userSpaceOnUse">
      <path d="M 20 0 L 0 0 0 20" fill="none" stroke="#00837f" stroke-width="0.3" stroke-opacity="0.05"/>
    </pattern>
  </defs>
  
  <!-- Фоновый прямоугольник с градиентом -->
  <rect width="1440" height="900" fill="url(#bgGradient)" />
  
  <!-- Сетка на весь фон -->
  <rect width="1440" height="900" fill="url(#gridPattern)" />
  
  <!-- Стилизованные элементы аналитики и контроля качества -->
  <g opacity="0.8">
    <!-- Левая сторона - график-столбцы -->
    <rect x="50" y="200" width="30" height="100" rx="2" fill="url(#chartGradient1)" filter="url(#softShadow)" />
    <rect x="90" y="180" width="30" height="120" rx="2" fill="url(#chartGradient2)" filter="url(#softShadow)" />
    <rect x="130" y="220" width="30" height="80" rx="2" fill="url(#chartGradient1)" filter="url(#softShadow)" />
    <rect x="170" y="150" width="30" height="150" rx="2" fill="url(#chartGradient2)" filter="url(#softShadow)" />
    <rect x="210" y="190" width="30" height="110" rx="2" fill="url(#chartGradient1)" filter="url(#softShadow)" />
    
    <!-- Правая сторона - график-столбцы -->
    <rect x="1160" y="200" width="30" height="100" rx="2" fill="url(#chartGradient2)" filter="url(#softShadow)" />
    <rect x="1200" y="180" width="30" height="120" rx="2" fill="url(#chartGradient1)" filter="url(#softShadow)" />
    <rect x="1240" y="220" width="30" height="80" rx="2" fill="url(#chartGradient2)" filter="url(#softShadow)" />
    <rect x="1280" y="150" width="30" height="150" rx="2" fill="url(#chartGradient1)" filter="url(#softShadow)" />
    <rect x="1320" y="190" width="30" height="110" rx="2" fill="url(#chartGradient2)" filter="url(#softShadow)" />
    
    <!-- Левая сторона - круговые диаграммы -->
    <circle cx="140" cy="500" r="70" fill="url(#chartGradient1)" filter="url(#softShadow)" />
    <path d="M140,500 L210,500 A70,70 0 0,1 140,570 Z" fill="url(#chartGradient2)" filter="url(#softShadow)" />
    
    <!-- Правая сторона - круговые диаграммы -->
    <circle cx="1240" cy="500" r="70" fill="url(#chartGradient2)" filter="url(#softShadow)" />
    <path d="M1240,500 L1310,500 A70,70 0 0,1 1240,570 Z" fill="url(#chartGradient1)" filter="url(#softShadow)" />
    
    <!-- Левая сторона - линейный график -->
    <path d="M50,700 L100,670 L150,690 L200,650 L250,680" stroke="#00837f" stroke-width="2" fill="none" filter="url(#softShadow)" />
    <circle cx="50" cy="700" r="4" fill="#00837f" />
    <circle cx="100" cy="670" r="4" fill="#00837f" />
    <circle cx="150" cy="690" r="4" fill="#00837f" />
    <circle cx="200" cy="650" r="4" fill="#00837f" />
    <circle cx="250" cy="680" r="4" fill="#00837f" />
    
    <!-- Правая сторона - линейный график -->
    <path d="M1160,700 L1210,670 L1260,690 L1310,650 L1360,680" stroke="#241e46" stroke-width="2" fill="none" filter="url(#softShadow)" />
    <circle cx="1160" cy="700" r="4" fill="#241e46" />
    <circle cx="1210" cy="670" r="4" fill="#241e46" />
    <circle cx="1260" cy="690" r="4" fill="#241e46" />
    <circle cx="1310" cy="650" r="4" fill="#241e46" />
    <circle cx="1360" cy="680" r="4" fill="#241e46" />
  </g>
  
  <!-- Линии осей координат -->
  <g opacity="0.15">
    <path d="M30,150 L30,350 L250,350" stroke="url(#lineGradient)" stroke-width="1" />
    <path d="M1140,150 L1140,350 L1360,350" stroke="url(#lineGradient)" stroke-width="1" />
    <path d="M30,600 L30,800 L250,800" stroke="url(#lineGradient)" stroke-width="1" />
    <path d="M1140,600 L1140,800 L1360,800" stroke="url(#lineGradient)" stroke-width="1" />
  </g>
  
  <!-- Очень легкие акценты в центральной части -->
  <g opacity="0.05">
    <circle cx="720" cy="200" r="3" fill="#00837f" />
    <circle cx="680" cy="300" r="2" fill="#241e46" />
    <circle cx="760" cy="400" r="3" fill="#00837f" />
    <circle cx="700" cy="500" r="2" fill="#241e46" />
    <circle cx="740" cy="600" r="3" fill="#00837f" />
    <circle cx="690" cy="700" r="2" fill="#241e46" />
  </g>
</svg> 