<svg xmlns="http://www.w3.org/2000/svg" width="100" height="80" viewBox="0 0 100 80">
  <defs>
    <linearGradient id="grad" x1="0%" y1="0%" x2="100%" y2="0%">
      <stop offset="0%" stop-color="#00837f" />
      <stop offset="100%" stop-color="#241e46" />
    </linearGradient>
  </defs>
  <path d="M20,65 C15,65 10,60 10,50 C10,35 20,25 35,20 L38,25 C25,30 20,40 20,45 C22,45 25,47 25,52 C25,59 22,65 20,65 Z M50,65 C45,65 40,60 40,50 C40,35 50,25 65,20 L68,25 C55,30 50,40 50,45 C52,45 55,47 55,52 C55,59 52,65 50,65 Z" fill="url(#grad)" />
</svg> 