<svg width="100" height="100" viewBox="0 0 100 100" xmlns="http://www.w3.org/2000/svg">
  <!-- Grid lines -->
  <g stroke="#006B71" stroke-width="0.5" stroke-opacity="0.2">
    <!-- Horizontal lines -->
    <line x1="0" y1="10" x2="100" y2="10" />
    <line x1="0" y1="20" x2="100" y2="20" />
    <line x1="0" y1="30" x2="100" y2="30" />
    <line x1="0" y1="40" x2="100" y2="40" />
    <line x1="0" y1="50" x2="100" y2="50" />
    <line x1="0" y1="60" x2="100" y2="60" />
    <line x1="0" y1="70" x2="100" y2="70" />
    <line x1="0" y1="80" x2="100" y2="80" />
    <line x1="0" y1="90" x2="100" y2="90" />
    
    <!-- Vertical lines -->
    <line x1="10" y1="0" x2="10" y2="100" />
    <line x1="20" y1="0" x2="20" y2="100" />
    <line x1="30" y1="0" x2="30" y2="100" />
    <line x1="40" y1="0" x2="40" y2="100" />
    <line x1="50" y1="0" x2="50" y2="100" />
    <line x1="60" y1="0" x2="60" y2="100" />
    <line x1="70" y1="0" x2="70" y2="100" />
    <line x1="80" y1="0" x2="80" y2="100" />
    <line x1="90" y1="0" x2="90" y2="100" />
  </g>
  
  <!-- Minor grid points -->
  <g fill="#006B71" fill-opacity="0.2">
    <circle cx="10" cy="10" r="0.5" />
    <circle cx="10" cy="20" r="0.5" />
    <circle cx="10" cy="30" r="0.5" />
    <circle cx="10" cy="40" r="0.5" />
    <circle cx="10" cy="50" r="0.5" />
    <circle cx="10" cy="60" r="0.5" />
    <circle cx="10" cy="70" r="0.5" />
    <circle cx="10" cy="80" r="0.5" />
    <circle cx="10" cy="90" r="0.5" />
    
    <circle cx="20" cy="10" r="0.5" />
    <circle cx="20" cy="20" r="0.5" />
    <circle cx="20" cy="30" r="0.5" />
    <circle cx="20" cy="40" r="0.5" />
    <circle cx="20" cy="50" r="0.5" />
    <circle cx="20" cy="60" r="0.5" />
    <circle cx="20" cy="70" r="0.5" />
    <circle cx="20" cy="80" r="0.5" />
    <circle cx="20" cy="90" r="0.5" />
    
    <circle cx="30" cy="10" r="0.5" />
    <circle cx="30" cy="20" r="0.5" />
    <circle cx="30" cy="30" r="0.5" />
    <circle cx="30" cy="40" r="0.5" />
    <circle cx="30" cy="50" r="0.5" />
    <circle cx="30" cy="60" r="0.5" />
    <circle cx="30" cy="70" r="0.5" />
    <circle cx="30" cy="80" r="0.5" />
    <circle cx="30" cy="90" r="0.5" />
    
    <circle cx="40" cy="10" r="0.5" />
    <circle cx="40" cy="20" r="0.5" />
    <circle cx="40" cy="30" r="0.5" />
    <circle cx="40" cy="40" r="0.5" />
    <circle cx="40" cy="50" r="0.5" />
    <circle cx="40" cy="60" r="0.5" />
    <circle cx="40" cy="70" r="0.5" />
    <circle cx="40" cy="80" r="0.5" />
    <circle cx="40" cy="90" r="0.5" />
    
    <circle cx="50" cy="10" r="0.5" />
    <circle cx="50" cy="20" r="0.5" />
    <circle cx="50" cy="30" r="0.5" />
    <circle cx="50" cy="40" r="0.5" />
    <circle cx="50" cy="50" r="0.5" />
    <circle cx="50" cy="60" r="0.5" />
    <circle cx="50" cy="70" r="0.5" />
    <circle cx="50" cy="80" r="0.5" />
    <circle cx="50" cy="90" r="0.5" />
    
    <circle cx="60" cy="10" r="0.5" />
    <circle cx="60" cy="20" r="0.5" />
    <circle cx="60" cy="30" r="0.5" />
    <circle cx="60" cy="40" r="0.5" />
    <circle cx="60" cy="50" r="0.5" />
    <circle cx="60" cy="60" r="0.5" />
    <circle cx="60" cy="70" r="0.5" />
    <circle cx="60" cy="80" r="0.5" />
    <circle cx="60" cy="90" r="0.5" />
    
    <circle cx="70" cy="10" r="0.5" />
    <circle cx="70" cy="20" r="0.5" />
    <circle cx="70" cy="30" r="0.5" />
    <circle cx="70" cy="40" r="0.5" />
    <circle cx="70" cy="50" r="0.5" />
    <circle cx="70" cy="60" r="0.5" />
    <circle cx="70" cy="70" r="0.5" />
    <circle cx="70" cy="80" r="0.5" />
    <circle cx="70" cy="90" r="0.5" />
    
    <circle cx="80" cy="10" r="0.5" />
    <circle cx="80" cy="20" r="0.5" />
    <circle cx="80" cy="30" r="0.5" />
    <circle cx="80" cy="40" r="0.5" />
    <circle cx="80" cy="50" r="0.5" />
    <circle cx="80" cy="60" r="0.5" />
    <circle cx="80" cy="70" r="0.5" />
    <circle cx="80" cy="80" r="0.5" />
    <circle cx="80" cy="90" r="0.5" />
    
    <circle cx="90" cy="10" r="0.5" />
    <circle cx="90" cy="20" r="0.5" />
    <circle cx="90" cy="30" r="0.5" />
    <circle cx="90" cy="40" r="0.5" />
    <circle cx="90" cy="50" r="0.5" />
    <circle cx="90" cy="60" r="0.5" />
    <circle cx="90" cy="70" r="0.5" />
    <circle cx="90" cy="80" r="0.5" />
    <circle cx="90" cy="90" r="0.5" />
  </g>
  
  <!-- Accent intersection points -->
  <g fill="#006B71" fill-opacity="0.4">
    <circle cx="0" cy="0" r="1" />
    <circle cx="100" cy="0" r="1" />
    <circle cx="0" cy="100" r="1" />
    <circle cx="100" cy="100" r="1" />
    
    <circle cx="50" cy="50" r="1.5" />
    <circle cx="50" cy="0" r="1" />
    <circle cx="50" cy="100" r="1" />
    <circle cx="0" cy="50" r="1" />
    <circle cx="100" cy="50" r="1" />
  </g>
</svg> 